<?xml version="1.0" standalone="no"?><!DOCTYPE svg PUBLIC "-//W3C//DTD SVG 1.1//EN" "http://www.w3.org/Graphics/SVG/1.1/DTD/svg11.dtd"><svg t="1741331777317" class="icon" viewBox="0 0 1024 1024" version="1.1" xmlns="http://www.w3.org/2000/svg" p-id="2647" xmlns:xlink="http://www.w3.org/1999/xlink" width="200" height="200"><path d="M1003.8 1003.8H20.2l90.6-118.4h802.4z" fill="#33ABE3" p-id="2648"></path><path d="M1003.8 1024H20.2c-7.7 0-14.7-4.4-18.1-11.3-3.4-6.9-2.6-15.1 2.1-21.2l90.6-118.4c3.8-5 9.8-7.9 16.1-7.9h802.4c6.3 0 12.2 2.9 16.1 7.9l90.6 118.4c4.7 6.1 5.5 14.3 2.1 21.2-3.6 6.9-10.6 11.3-18.3 11.3zM61.1 983.6h901.8l-59.7-78H120.8l-59.7 78z" fill="#403F3F" p-id="2649"></path><path d="M913.2 885.4H110.8L279 665.3h466z" fill="#FFFFFF" p-id="2650"></path><path d="M913.2 905.6H110.8c-7.7 0-14.7-4.4-18.1-11.3-3.4-6.9-2.6-15.1 2.1-21.2l168.2-220c3.8-5 9.8-7.9 16.1-7.9H745c6.3 0 12.2 2.9 16.1 7.9l168.3 220c4.7 6.1 5.5 14.3 2.1 21.2-3.6 6.9-10.6 11.3-18.3 11.3z m-761.5-40.4h720.6L735 685.6H289L151.7 865.2z" fill="#403F3F" p-id="2651"></path><path d="M754.6 895.8l-71.8-119.1H289c-7.2 0-13.9-3.9-17.5-10.2-3.6-6.3-3.6-14 0.1-20.3L325 655l34.9 20.4-35.6 60.8h370c7.1 0 13.7 3.7 17.3 9.8l77.6 128.8-34.6 21z" fill="#403F3F" p-id="2652"></path><path d="M787.4 295.7c0 152.1-275.5 526.7-275.5 526.7S236.5 447.8 236.5 295.7 359.8 20.2 512 20.2s275.4 123.3 275.4 275.5z" fill="#33ABE3" p-id="2653"></path><path d="M512 842.6c-6.4 0-12.5-3.1-16.3-8.2-11.4-15.5-279.4-381.7-279.4-538.7C216.3 132.6 348.9 0 512 0s295.7 132.6 295.7 295.7c0 157-268 523.2-279.4 538.7-3.9 5.2-9.9 8.2-16.3 8.2z m0-802.2c-140.8 0-255.3 114.5-255.3 255.3 0 123 196.6 409.4 255.3 492.1 58.6-82.7 255.2-369.1 255.2-492.1 0-140.8-114.5-255.3-255.2-255.3z" fill="#403F3F" p-id="2654"></path><path d="M512 295.7m-118.6 0a118.6 118.6 0 1 0 237.2 0 118.6 118.6 0 1 0-237.2 0Z" fill="#FFFFFF" p-id="2655"></path><path d="M512 434.4c-76.5 0-138.8-62.3-138.8-138.8S435.4 156.9 512 156.9s138.8 62.3 138.8 138.8S588.5 434.4 512 434.4z m0-237.1c-54.2 0-98.4 44.1-98.4 98.4S457.7 394 512 394s98.4-44.1 98.4-98.4-44.2-98.3-98.4-98.3z" fill="#403F3F" p-id="2656"></path></svg>